<mxfile host="app.diagrams.net" modified="2023-09-27T16:10:56.689Z" agent="Mozilla/5.0 (Windows NT 10.0; Win64; x64) AppleWebKit/537.36 (KHTML, like Gecko) Chrome/116.0.0.0 Safari/537.36" etag="OMpSt-nAekK8VoQC_Xyc" version="21.8.2" type="github">
  <diagram name="Страница — 1" id="8Ea1oaCpZVZsOnpf_MXl">
    <mxGraphModel dx="1247" dy="659" grid="1" gridSize="10" guides="1" tooltips="1" connect="1" arrows="1" fold="1" page="1" pageScale="1" pageWidth="827" pageHeight="1169" math="0" shadow="0">
      <root>
        <mxCell id="0" />
        <mxCell id="1" parent="0" />
        <mxCell id="9oZlGw_E0PTlBS_OEf-N-3" value="USER" style="shape=umlActor;verticalLabelPosition=bottom;verticalAlign=top;html=1;" parent="1" vertex="1">
          <mxGeometry x="20" y="335" width="30" height="60" as="geometry" />
        </mxCell>
        <mxCell id="9oZlGw_E0PTlBS_OEf-N-13" value="" style="endArrow=none;html=1;rounded=0;exitX=1;exitY=0.3333333333333333;exitDx=0;exitDy=0;exitPerimeter=0;entryX=0.5;entryY=0;entryDx=0;entryDy=0;" parent="1" source="9oZlGw_E0PTlBS_OEf-N-3" target="qshuv2vcI1KQveVSZfAl-1" edge="1">
          <mxGeometry width="50" height="50" relative="1" as="geometry">
            <mxPoint x="200" y="400" as="sourcePoint" />
            <mxPoint x="250" y="350" as="targetPoint" />
          </mxGeometry>
        </mxCell>
        <mxCell id="9oZlGw_E0PTlBS_OEf-N-23" value="" style="endArrow=none;html=1;rounded=0;entryX=0;entryY=0.5;entryDx=0;entryDy=0;exitX=1;exitY=0.3333333333333333;exitDx=0;exitDy=0;exitPerimeter=0;" parent="1" source="9oZlGw_E0PTlBS_OEf-N-3" target="9oZlGw_E0PTlBS_OEf-N-21" edge="1">
          <mxGeometry width="50" height="50" relative="1" as="geometry">
            <mxPoint x="200" y="400" as="sourcePoint" />
            <mxPoint x="250" y="350" as="targetPoint" />
          </mxGeometry>
        </mxCell>
        <mxCell id="9oZlGw_E0PTlBS_OEf-N-30" value="Application" style="shape=umlActor;verticalLabelPosition=bottom;verticalAlign=top;html=1;" parent="1" vertex="1">
          <mxGeometry x="700" y="335" width="30" height="60" as="geometry" />
        </mxCell>
        <mxCell id="9oZlGw_E0PTlBS_OEf-N-31" value="" style="endArrow=none;html=1;rounded=0;exitX=0;exitY=0.3333333333333333;exitDx=0;exitDy=0;exitPerimeter=0;entryX=1;entryY=0.5;entryDx=0;entryDy=0;" parent="1" source="9oZlGw_E0PTlBS_OEf-N-30" target="9oZlGw_E0PTlBS_OEf-N-21" edge="1">
          <mxGeometry width="50" height="50" relative="1" as="geometry">
            <mxPoint x="230" y="380" as="sourcePoint" />
            <mxPoint x="280" y="330" as="targetPoint" />
          </mxGeometry>
        </mxCell>
        <mxCell id="9oZlGw_E0PTlBS_OEf-N-33" value="" style="swimlane;startSize=0;" parent="1" vertex="1">
          <mxGeometry x="100" y="110" width="600" height="630" as="geometry">
            <mxRectangle x="120" y="120" width="50" height="40" as="alternateBounds" />
          </mxGeometry>
        </mxCell>
        <mxCell id="9oZlGw_E0PTlBS_OEf-N-4" value="Отрисовать фигуру" style="ellipse;whiteSpace=wrap;html=1;" parent="9oZlGw_E0PTlBS_OEf-N-33" vertex="1">
          <mxGeometry x="370" y="220" width="120" height="40" as="geometry" />
        </mxCell>
        <mxCell id="9oZlGw_E0PTlBS_OEf-N-20" value="Изменить изменить параметры фигуры" style="ellipse;whiteSpace=wrap;html=1;" parent="9oZlGw_E0PTlBS_OEf-N-33" vertex="1">
          <mxGeometry x="230" y="120" width="120" height="40" as="geometry" />
        </mxCell>
        <mxCell id="V4i8b1m4TsCkMUbFpvic-2" value="&amp;lt;&amp;lt;extends&amp;gt;&amp;gt;" style="endArrow=open;endSize=12;dashed=1;html=1;rounded=0;entryX=0.5;entryY=0;entryDx=0;entryDy=0;exitX=0.5;exitY=1;exitDx=0;exitDy=0;" parent="9oZlGw_E0PTlBS_OEf-N-33" source="9oZlGw_E0PTlBS_OEf-N-20" target="9oZlGw_E0PTlBS_OEf-N-4" edge="1">
          <mxGeometry width="160" relative="1" as="geometry">
            <mxPoint x="280" y="390" as="sourcePoint" />
            <mxPoint x="150" y="370" as="targetPoint" />
          </mxGeometry>
        </mxCell>
        <mxCell id="V4i8b1m4TsCkMUbFpvic-3" value="Сохранить в выбранном формате" style="ellipse;whiteSpace=wrap;html=1;" parent="9oZlGw_E0PTlBS_OEf-N-33" vertex="1">
          <mxGeometry x="50" y="20" width="120" height="40" as="geometry" />
        </mxCell>
        <mxCell id="V4i8b1m4TsCkMUbFpvic-5" value="Отрисовать выбранной графической библиотекой" style="ellipse;whiteSpace=wrap;html=1;" parent="9oZlGw_E0PTlBS_OEf-N-33" vertex="1">
          <mxGeometry x="460" y="320" width="120" height="60" as="geometry" />
        </mxCell>
        <mxCell id="V4i8b1m4TsCkMUbFpvic-6" value="" style="endArrow=open;endSize=12;dashed=1;html=1;rounded=0;exitX=1;exitY=1;exitDx=0;exitDy=0;entryX=0.5;entryY=0;entryDx=0;entryDy=0;" parent="9oZlGw_E0PTlBS_OEf-N-33" source="9oZlGw_E0PTlBS_OEf-N-4" target="V4i8b1m4TsCkMUbFpvic-5" edge="1">
          <mxGeometry width="160" relative="1" as="geometry">
            <mxPoint x="220" y="200" as="sourcePoint" />
            <mxPoint x="380" y="200" as="targetPoint" />
          </mxGeometry>
        </mxCell>
        <mxCell id="V4i8b1m4TsCkMUbFpvic-7" value="&amp;lt;&amp;lt;include&amp;gt;&amp;gt;" style="edgeLabel;html=1;align=center;verticalAlign=middle;resizable=0;points=[];" parent="V4i8b1m4TsCkMUbFpvic-6" vertex="1" connectable="0">
          <mxGeometry x="-0.1416" y="-2" relative="1" as="geometry">
            <mxPoint as="offset" />
          </mxGeometry>
        </mxCell>
        <mxCell id="9oZlGw_E0PTlBS_OEf-N-21" value="Сохранить изображение" style="ellipse;whiteSpace=wrap;html=1;" parent="9oZlGw_E0PTlBS_OEf-N-33" vertex="1">
          <mxGeometry x="230" y="60" width="120" height="40" as="geometry" />
        </mxCell>
        <mxCell id="V4i8b1m4TsCkMUbFpvic-4" value="&amp;lt;&amp;lt;include&amp;gt;&amp;gt;" style="endArrow=open;endSize=12;dashed=1;html=1;rounded=0;exitX=0.5;exitY=0;exitDx=0;exitDy=0;entryX=1;entryY=0.5;entryDx=0;entryDy=0;" parent="9oZlGw_E0PTlBS_OEf-N-33" source="9oZlGw_E0PTlBS_OEf-N-21" target="V4i8b1m4TsCkMUbFpvic-3" edge="1">
          <mxGeometry width="160" relative="1" as="geometry">
            <mxPoint x="220" y="140" as="sourcePoint" />
            <mxPoint x="380" y="140" as="targetPoint" />
          </mxGeometry>
        </mxCell>
        <mxCell id="9oZlGw_E0PTlBS_OEf-N-5" value="Выбрать фигуру" style="ellipse;whiteSpace=wrap;html=1;" parent="9oZlGw_E0PTlBS_OEf-N-33" vertex="1">
          <mxGeometry x="80" y="160" width="120" height="40" as="geometry" />
        </mxCell>
        <mxCell id="9oZlGw_E0PTlBS_OEf-N-14" value="Поместить фигуру на холст" style="ellipse;whiteSpace=wrap;html=1;" parent="9oZlGw_E0PTlBS_OEf-N-33" vertex="1">
          <mxGeometry x="220" y="340" width="120" height="40" as="geometry" />
        </mxCell>
        <mxCell id="9oZlGw_E0PTlBS_OEf-N-19" value="&amp;lt;&amp;lt;include&amp;gt;&amp;gt;" style="endArrow=open;endSize=12;dashed=1;html=1;rounded=0;exitX=0.5;exitY=0;exitDx=0;exitDy=0;entryX=0.5;entryY=1;entryDx=0;entryDy=0;" parent="9oZlGw_E0PTlBS_OEf-N-33" source="9oZlGw_E0PTlBS_OEf-N-14" target="9oZlGw_E0PTlBS_OEf-N-5" edge="1">
          <mxGeometry width="160" relative="1" as="geometry">
            <mxPoint x="20" y="190" as="sourcePoint" />
            <mxPoint x="180" y="190" as="targetPoint" />
          </mxGeometry>
        </mxCell>
        <mxCell id="9oZlGw_E0PTlBS_OEf-N-26" value="&amp;lt;&amp;lt;extends&amp;gt;&amp;gt;" style="endArrow=open;endSize=12;dashed=1;html=1;rounded=0;entryX=1;entryY=0.5;entryDx=0;entryDy=0;exitX=0.5;exitY=1;exitDx=0;exitDy=0;" parent="9oZlGw_E0PTlBS_OEf-N-33" source="9oZlGw_E0PTlBS_OEf-N-20" target="9oZlGw_E0PTlBS_OEf-N-5" edge="1">
          <mxGeometry width="160" relative="1" as="geometry">
            <mxPoint x="60" y="230" as="sourcePoint" />
            <mxPoint x="220" y="230" as="targetPoint" />
          </mxGeometry>
        </mxCell>
        <mxCell id="I9Xg0yJfJ16n1XP8R82h-1" value="&amp;lt;&amp;lt;include&amp;gt;&amp;gt;" style="endArrow=open;endSize=12;dashed=1;html=1;rounded=0;exitX=0;exitY=0.5;exitDx=0;exitDy=0;entryX=0.954;entryY=0.219;entryDx=0;entryDy=0;entryPerimeter=0;" parent="9oZlGw_E0PTlBS_OEf-N-33" source="9oZlGw_E0PTlBS_OEf-N-4" target="9oZlGw_E0PTlBS_OEf-N-14" edge="1">
          <mxGeometry width="160" relative="1" as="geometry">
            <mxPoint x="210" y="305" as="sourcePoint" />
            <mxPoint x="210" y="210" as="targetPoint" />
          </mxGeometry>
        </mxCell>
        <mxCell id="qshuv2vcI1KQveVSZfAl-1" value="Создать холст&lt;br&gt;" style="ellipse;whiteSpace=wrap;html=1;" vertex="1" parent="9oZlGw_E0PTlBS_OEf-N-33">
          <mxGeometry x="100" y="490" width="120" height="40" as="geometry" />
        </mxCell>
        <mxCell id="qshuv2vcI1KQveVSZfAl-3" value="Изменить изменить параметры холста" style="ellipse;whiteSpace=wrap;html=1;" vertex="1" parent="9oZlGw_E0PTlBS_OEf-N-33">
          <mxGeometry x="290" y="495" width="120" height="40" as="geometry" />
        </mxCell>
        <mxCell id="qshuv2vcI1KQveVSZfAl-5" value="&amp;lt;&amp;lt;extends&amp;gt;&amp;gt;" style="endArrow=open;endSize=12;dashed=1;html=1;rounded=0;entryX=1;entryY=0.5;entryDx=0;entryDy=0;exitX=0;exitY=0.5;exitDx=0;exitDy=0;" edge="1" parent="9oZlGw_E0PTlBS_OEf-N-33" source="qshuv2vcI1KQveVSZfAl-3" target="qshuv2vcI1KQveVSZfAl-1">
          <mxGeometry width="160" relative="1" as="geometry">
            <mxPoint x="130" y="630" as="sourcePoint" />
            <mxPoint x="160" y="505" as="targetPoint" />
          </mxGeometry>
        </mxCell>
        <mxCell id="qshuv2vcI1KQveVSZfAl-6" value="&amp;lt;&amp;lt;extends&amp;gt;&amp;gt;" style="endArrow=open;endSize=12;dashed=1;html=1;rounded=0;entryX=0.5;entryY=1;entryDx=0;entryDy=0;exitX=0.5;exitY=0;exitDx=0;exitDy=0;" edge="1" parent="9oZlGw_E0PTlBS_OEf-N-33" source="qshuv2vcI1KQveVSZfAl-1" target="9oZlGw_E0PTlBS_OEf-N-14">
          <mxGeometry width="160" relative="1" as="geometry">
            <mxPoint x="190" y="525" as="sourcePoint" />
            <mxPoint x="160" y="485" as="targetPoint" />
          </mxGeometry>
        </mxCell>
        <mxCell id="qshuv2vcI1KQveVSZfAl-7" value="Выбрать графическую библиотеку" style="ellipse;whiteSpace=wrap;html=1;" vertex="1" parent="9oZlGw_E0PTlBS_OEf-N-33">
          <mxGeometry x="460" y="444.5" width="120" height="60" as="geometry" />
        </mxCell>
        <mxCell id="qshuv2vcI1KQveVSZfAl-8" value="&amp;lt;&amp;lt;extends&amp;gt;&amp;gt;" style="endArrow=open;endSize=12;dashed=1;html=1;rounded=0;entryX=0.5;entryY=1;entryDx=0;entryDy=0;exitX=0.5;exitY=0;exitDx=0;exitDy=0;" edge="1" parent="9oZlGw_E0PTlBS_OEf-N-33" source="qshuv2vcI1KQveVSZfAl-7" target="V4i8b1m4TsCkMUbFpvic-5">
          <mxGeometry width="160" relative="1" as="geometry">
            <mxPoint x="380" y="600" as="sourcePoint" />
            <mxPoint x="410" y="475" as="targetPoint" />
          </mxGeometry>
        </mxCell>
        <mxCell id="qshuv2vcI1KQveVSZfAl-9" value="&amp;lt;&amp;lt;extends&amp;gt;&amp;gt;" style="endArrow=open;endSize=12;dashed=1;html=1;rounded=0;entryX=0.5;entryY=0;entryDx=0;entryDy=0;exitX=0.5;exitY=1;exitDx=0;exitDy=0;" edge="1" parent="9oZlGw_E0PTlBS_OEf-N-33" source="9oZlGw_E0PTlBS_OEf-N-20" target="9oZlGw_E0PTlBS_OEf-N-14">
          <mxGeometry width="160" relative="1" as="geometry">
            <mxPoint x="290" y="160" as="sourcePoint" />
            <mxPoint x="310" y="225" as="targetPoint" />
          </mxGeometry>
        </mxCell>
        <mxCell id="qshuv2vcI1KQveVSZfAl-10" value="Удалить фигуру" style="ellipse;whiteSpace=wrap;html=1;" vertex="1" parent="9oZlGw_E0PTlBS_OEf-N-33">
          <mxGeometry x="40" y="280" width="120" height="40" as="geometry" />
        </mxCell>
        <mxCell id="qshuv2vcI1KQveVSZfAl-11" value="&amp;lt;&amp;lt;extends&amp;gt;&amp;gt;" style="endArrow=open;endSize=12;dashed=1;html=1;rounded=0;entryX=0.5;entryY=1;entryDx=0;entryDy=0;exitX=0.5;exitY=0;exitDx=0;exitDy=0;" edge="1" parent="9oZlGw_E0PTlBS_OEf-N-33" source="qshuv2vcI1KQveVSZfAl-10" target="9oZlGw_E0PTlBS_OEf-N-5">
          <mxGeometry width="160" relative="1" as="geometry">
            <mxPoint x="170" y="500" as="sourcePoint" />
            <mxPoint x="290" y="390" as="targetPoint" />
          </mxGeometry>
        </mxCell>
        <mxCell id="9oZlGw_E0PTlBS_OEf-N-35" value="System" style="text;html=1;align=center;verticalAlign=middle;resizable=0;points=[];autosize=1;strokeColor=none;fillColor=none;" parent="1" vertex="1">
          <mxGeometry x="330" y="118" width="60" height="30" as="geometry" />
        </mxCell>
        <mxCell id="9oZlGw_E0PTlBS_OEf-N-36" value="" style="endArrow=none;html=1;rounded=0;entryX=0;entryY=0.3333333333333333;entryDx=0;entryDy=0;entryPerimeter=0;exitX=1;exitY=0.5;exitDx=0;exitDy=0;" parent="1" source="9oZlGw_E0PTlBS_OEf-N-4" target="9oZlGw_E0PTlBS_OEf-N-30" edge="1">
          <mxGeometry width="50" height="50" relative="1" as="geometry">
            <mxPoint x="290" y="380" as="sourcePoint" />
            <mxPoint x="340" y="330" as="targetPoint" />
          </mxGeometry>
        </mxCell>
        <mxCell id="V4i8b1m4TsCkMUbFpvic-20" value="Схема прeцедентов для графического редактора" style="text;html=1;strokeColor=none;fillColor=none;align=center;verticalAlign=middle;whiteSpace=wrap;rounded=0;" parent="1" vertex="1">
          <mxGeometry x="265" y="70" width="190" height="30" as="geometry" />
        </mxCell>
      </root>
    </mxGraphModel>
  </diagram>
</mxfile>
